<?xml version="1.0" encoding="UTF-8"?>
<svg xmlns="http://www.w3.org/2000/svg" xmlns:xlink="http://www.w3.org/1999/xlink" width="200pt" height="55pt" viewBox="0 0 1069.1 212.07" version="1.1">
<g id="surface1">
<path style="fill-rule:nonzero;fill:rgb(24.89624%,67.852783%,40.460205%);fill-opacity:1;stroke-width:7.97021;stroke-linecap:butt;stroke-linejoin:miter;stroke:rgb(0%,0%,0%);stroke-opacity:1;stroke-miterlimit:10;" d="M -17.007188 -7.047188 L -17.007188 177.128594 C -17.007188 182.628594 -12.550156 187.089531 -7.04625 187.089531 L 1027.531875 187.089531 C 1033.035781 187.089531 1037.492812 182.628594 1037.492812 177.128594 L 1037.492812 -7.047188 C 1037.492812 -12.547188 1033.035781 -17.008125 1027.531875 -17.008125 L -7.04625 -17.008125 C -12.550156 -17.008125 -17.007188 -12.547188 -17.007188 -7.047188 Z M -17.007188 -7.047188 " transform="matrix(1,0,0,-1,27.64,191.07)"/>
<path style="fill:none;stroke-width:7.97021;stroke-linecap:butt;stroke-linejoin:miter;stroke:rgb(0%,0%,0%);stroke-opacity:1;stroke-miterlimit:10;" d="M 11.906875 13.35125 L 11.906875 156.730156 " transform="matrix(1,0,0,-1,27.64,191.07)"/>
<path style=" stroke:none;fill-rule:nonzero;fill:rgb(0%,0%,0%);fill-opacity:1;" d="M 39.546875 191.070312 L 50.226562 169.710938 L 39.546875 177.71875 L 28.867188 169.710938 "/>
<path style=" stroke:none;fill-rule:nonzero;fill:rgb(0%,0%,0%);fill-opacity:1;" d="M 39.546875 20.988281 L 28.867188 42.347656 L 39.546875 34.339844 L 50.226562 42.347656 "/>
<path style="fill:none;stroke-width:7.97021;stroke-linecap:butt;stroke-linejoin:miter;stroke:rgb(0%,0%,0%);stroke-opacity:1;stroke-miterlimit:10;" d="M 25.258437 -0.0003125 L 144.824844 -0.0003125 " transform="matrix(1,0,0,-1,27.64,191.07)"/>
<path style=" stroke:none;fill-rule:nonzero;fill:rgb(0%,0%,0%);fill-opacity:1;" d="M 39.546875 191.070312 L 60.90625 201.75 L 52.898438 191.070312 L 60.90625 180.390625 "/>
<path style=" stroke:none;fill-rule:nonzero;fill:rgb(0%,0%,0%);fill-opacity:1;" d="M 185.8125 191.070312 L 164.453125 180.390625 L 172.464844 191.070312 L 164.453125 201.75 "/>
<path style="fill:none;stroke-width:7.97021;stroke-linecap:butt;stroke-linejoin:miter;stroke:rgb(0%,0%,0%);stroke-opacity:1;stroke-miterlimit:10;" d="M 25.258437 85.03875 L 144.824844 85.03875 " transform="matrix(1,0,0,-1,27.64,191.07)"/>
<path style=" stroke:none;fill-rule:nonzero;fill:rgb(0%,0%,0%);fill-opacity:1;" d="M 39.546875 106.03125 L 60.90625 116.710938 L 52.898438 106.03125 L 60.90625 95.347656 "/>
<path style=" stroke:none;fill-rule:nonzero;fill:rgb(0%,0%,0%);fill-opacity:1;" d="M 185.8125 106.03125 L 164.453125 95.347656 L 172.464844 106.03125 L 164.453125 116.710938 "/>
<path style="fill:none;stroke-width:7.97021;stroke-linecap:butt;stroke-linejoin:miter;stroke:rgb(0%,0%,0%);stroke-opacity:1;stroke-miterlimit:10;" d="M 25.258437 170.081719 L 144.824844 170.081719 " transform="matrix(1,0,0,-1,27.64,191.07)"/>
<path style=" stroke:none;fill-rule:nonzero;fill:rgb(0%,0%,0%);fill-opacity:1;" d="M 39.546875 20.988281 L 60.90625 31.667969 L 52.898438 20.988281 L 60.90625 10.308594 "/>
<path style=" stroke:none;fill-rule:nonzero;fill:rgb(0%,0%,0%);fill-opacity:1;" d="M 185.8125 20.988281 L 164.453125 10.308594 L 172.464844 20.988281 L 164.453125 31.667969 "/>
<path style="fill:none;stroke-width:7.97021;stroke-linecap:butt;stroke-linejoin:miter;stroke:rgb(100%,100%,100%);stroke-opacity:1;stroke-miterlimit:10;" d="M 181.988906 13.35125 L 181.988906 156.730156 " transform="matrix(1,0,0,-1,27.64,191.07)"/>
<path style=" stroke:none;fill-rule:nonzero;fill:rgb(100%,100%,100%);fill-opacity:1;" d="M 209.628906 191.070312 L 220.308594 169.710938 L 209.628906 177.71875 L 198.949219 169.710938 "/>
<path style=" stroke:none;fill-rule:nonzero;fill:rgb(100%,100%,100%);fill-opacity:1;" d="M 209.628906 20.988281 L 198.949219 42.347656 L 209.628906 34.339844 L 220.308594 42.347656 "/>
<path style="fill:none;stroke-width:7.97021;stroke-linecap:butt;stroke-linejoin:miter;stroke:rgb(100%,100%,100%);stroke-opacity:1;stroke-miterlimit:10;" d="M 328.254531 13.35125 L 328.254531 156.730156 " transform="matrix(1,0,0,-1,27.64,191.07)"/>
<path style=" stroke:none;fill-rule:nonzero;fill:rgb(100%,100%,100%);fill-opacity:1;" d="M 355.894531 191.070312 L 366.574219 169.710938 L 355.894531 177.71875 L 345.214844 169.710938 "/>
<path style=" stroke:none;fill-rule:nonzero;fill:rgb(100%,100%,100%);fill-opacity:1;" d="M 355.894531 20.988281 L 345.214844 42.347656 L 355.894531 34.339844 L 366.574219 42.347656 "/>
<path style="fill:none;stroke-width:7.97021;stroke-linecap:butt;stroke-linejoin:miter;stroke:rgb(100%,100%,100%);stroke-opacity:1;stroke-miterlimit:10;" d="M 190.735 159.909844 L 246.371719 95.210625 " transform="matrix(1,0,0,-1,27.64,191.07)"/>
<path style=" stroke:none;fill-rule:nonzero;fill:rgb(100%,100%,100%);fill-opacity:1;" d="M 209.628906 20.988281 L 215.488281 44.261719 L 218.375 31.160156 L 231.761719 30.265625 "/>
<path style=" stroke:none;fill-rule:nonzero;fill:rgb(100%,100%,100%);fill-opacity:1;" d="M 282.761719 106.03125 L 276.902344 82.757812 L 274.011719 95.859375 L 260.625 96.753906 "/>
<path style="fill:none;stroke-width:7.97021;stroke-linecap:butt;stroke-linejoin:miter;stroke:rgb(100%,100%,100%);stroke-opacity:1;stroke-miterlimit:10;" d="M 263.867813 95.210625 L 319.508438 159.909844 " transform="matrix(1,0,0,-1,27.64,191.07)"/>
<path style=" stroke:none;fill-rule:nonzero;fill:rgb(100%,100%,100%);fill-opacity:1;" d="M 282.761719 106.03125 L 304.894531 96.753906 L 291.507812 95.859375 L 288.621094 82.757812 "/>
<path style=" stroke:none;fill-rule:nonzero;fill:rgb(100%,100%,100%);fill-opacity:1;" d="M 355.894531 20.988281 L 333.761719 30.265625 L 347.148438 31.160156 L 350.035156 44.261719 "/>
<path style="fill:none;stroke-width:7.97021;stroke-linecap:butt;stroke-linejoin:miter;stroke:rgb(100%,100%,100%);stroke-opacity:1;stroke-miterlimit:10;" d="M 352.067031 13.35125 L 352.067031 156.730156 " transform="matrix(1,0,0,-1,27.64,191.07)"/>
<path style=" stroke:none;fill-rule:nonzero;fill:rgb(100%,100%,100%);fill-opacity:1;" d="M 379.707031 191.070312 L 390.390625 169.710938 L 379.707031 177.71875 L 369.027344 169.710938 "/>
<path style=" stroke:none;fill-rule:nonzero;fill:rgb(100%,100%,100%);fill-opacity:1;" d="M 379.707031 20.988281 L 369.027344 42.347656 L 379.707031 34.339844 L 390.390625 42.347656 "/>
<path style="fill:none;stroke-width:7.97021;stroke-linecap:butt;stroke-linejoin:miter;stroke:rgb(100%,100%,100%);stroke-opacity:1;stroke-miterlimit:10;" d="M 498.336563 98.390312 L 498.336563 156.730156 " transform="matrix(1,0,0,-1,27.64,191.07)"/>
<path style=" stroke:none;fill-rule:nonzero;fill:rgb(100%,100%,100%);fill-opacity:1;" d="M 525.976562 106.03125 L 536.65625 84.667969 L 525.976562 92.679688 L 515.296875 84.667969 "/>
<path style=" stroke:none;fill-rule:nonzero;fill:rgb(100%,100%,100%);fill-opacity:1;" d="M 525.976562 20.988281 L 515.296875 42.347656 L 525.976562 34.339844 L 536.65625 42.347656 "/>
<path style="fill:none;stroke-width:7.97021;stroke-linecap:butt;stroke-linejoin:miter;stroke:rgb(100%,100%,100%);stroke-opacity:1;stroke-miterlimit:10;" d="M 365.418594 85.03875 L 484.985 85.03875 " transform="matrix(1,0,0,-1,27.64,191.07)"/>
<path style=" stroke:none;fill-rule:nonzero;fill:rgb(100%,100%,100%);fill-opacity:1;" d="M 379.707031 106.03125 L 401.070312 116.710938 L 393.058594 106.03125 L 401.070312 95.347656 "/>
<path style=" stroke:none;fill-rule:nonzero;fill:rgb(100%,100%,100%);fill-opacity:1;" d="M 525.976562 106.03125 L 504.617188 95.347656 L 512.625 106.03125 L 504.617188 116.710938 "/>
<path style="fill:none;stroke-width:7.97021;stroke-linecap:butt;stroke-linejoin:miter;stroke:rgb(100%,100%,100%);stroke-opacity:1;stroke-miterlimit:10;" d="M 365.418594 170.081719 L 484.985 170.081719 " transform="matrix(1,0,0,-1,27.64,191.07)"/>
<path style=" stroke:none;fill-rule:nonzero;fill:rgb(100%,100%,100%);fill-opacity:1;" d="M 379.707031 20.988281 L 401.070312 31.667969 L 393.058594 20.988281 L 401.070312 10.308594 "/>
<path style=" stroke:none;fill-rule:nonzero;fill:rgb(100%,100%,100%);fill-opacity:1;" d="M 525.976562 20.988281 L 504.617188 10.308594 L 512.625 20.988281 L 504.617188 31.667969 "/>
<path style="fill:none;stroke-width:7.97021;stroke-linecap:butt;stroke-linejoin:miter;stroke:rgb(100%,100%,100%);stroke-opacity:1;stroke-miterlimit:10;" d="M 535.500625 -0.0003125 L 655.067031 -0.0003125 " transform="matrix(1,0,0,-1,27.64,191.07)"/>
<path style=" stroke:none;fill-rule:nonzero;fill:rgb(100%,100%,100%);fill-opacity:1;" d="M 549.789062 191.070312 L 571.148438 201.75 L 563.140625 191.070312 L 571.148438 180.390625 "/>
<path style=" stroke:none;fill-rule:nonzero;fill:rgb(100%,100%,100%);fill-opacity:1;" d="M 696.054688 191.070312 L 674.695312 180.390625 L 682.707031 191.070312 L 674.695312 201.75 "/>
<path style="fill:none;stroke-width:7.97021;stroke-linecap:butt;stroke-linejoin:miter;stroke:rgb(100%,100%,100%);stroke-opacity:1;stroke-miterlimit:10;" d="M 535.500625 170.081719 L 655.067031 170.081719 " transform="matrix(1,0,0,-1,27.64,191.07)"/>
<path style=" stroke:none;fill-rule:nonzero;fill:rgb(100%,100%,100%);fill-opacity:1;" d="M 549.789062 20.988281 L 571.148438 31.667969 L 563.140625 20.988281 L 571.148438 10.308594 "/>
<path style=" stroke:none;fill-rule:nonzero;fill:rgb(100%,100%,100%);fill-opacity:1;" d="M 696.054688 20.988281 L 674.695312 10.308594 L 682.707031 20.988281 L 674.695312 31.667969 "/>
<path style="fill:none;stroke-width:7.97021;stroke-linecap:butt;stroke-linejoin:miter;stroke:rgb(100%,100%,100%);stroke-opacity:1;stroke-miterlimit:10;" d="M 595.281875 13.35125 L 595.281875 156.730156 " transform="matrix(1,0,0,-1,27.64,191.07)"/>
<path style=" stroke:none;fill-rule:nonzero;fill:rgb(100%,100%,100%);fill-opacity:1;" d="M 622.921875 191.070312 L 633.601562 169.710938 L 622.921875 177.71875 L 612.242188 169.710938 "/>
<path style=" stroke:none;fill-rule:nonzero;fill:rgb(100%,100%,100%);fill-opacity:1;" d="M 622.921875 20.988281 L 612.242188 42.347656 L 622.921875 34.339844 L 633.601562 42.347656 "/>
<path style="fill:none;stroke-width:7.97021;stroke-linecap:butt;stroke-linejoin:miter;stroke:rgb(0%,0%,0%);stroke-opacity:1;stroke-miterlimit:10;" d="M 692.231094 13.35125 L 692.231094 156.730156 " transform="matrix(1,0,0,-1,27.64,191.07)"/>
<path style=" stroke:none;fill-rule:nonzero;fill:rgb(0%,0%,0%);fill-opacity:1;" d="M 719.871094 191.070312 L 730.550781 169.710938 L 719.871094 177.71875 L 709.191406 169.710938 "/>
<path style=" stroke:none;fill-rule:nonzero;fill:rgb(0%,0%,0%);fill-opacity:1;" d="M 719.871094 20.988281 L 709.191406 42.347656 L 719.871094 34.339844 L 730.550781 42.347656 "/>
<path style="fill:none;stroke-width:7.97021;stroke-linecap:butt;stroke-linejoin:miter;stroke:rgb(0%,0%,0%);stroke-opacity:1;stroke-miterlimit:10;" d="M 705.57875 170.081719 L 825.145156 170.081719 " transform="matrix(1,0,0,-1,27.64,191.07)"/>
<path style=" stroke:none;fill-rule:nonzero;fill:rgb(0%,0%,0%);fill-opacity:1;" d="M 719.871094 20.988281 L 741.230469 31.667969 L 733.21875 20.988281 L 741.230469 10.308594 "/>
<path style=" stroke:none;fill-rule:nonzero;fill:rgb(0%,0%,0%);fill-opacity:1;" d="M 866.136719 20.988281 L 844.777344 10.308594 L 852.785156 20.988281 L 844.777344 31.667969 "/>
<path style="fill:none;stroke-width:7.97021;stroke-linecap:butt;stroke-linejoin:miter;stroke:rgb(0%,0%,0%);stroke-opacity:1;stroke-miterlimit:10;" d="M 838.496719 156.730156 L 838.496719 98.390312 " transform="matrix(1,0,0,-1,27.64,191.07)"/>
<path style=" stroke:none;fill-rule:nonzero;fill:rgb(0%,0%,0%);fill-opacity:1;" d="M 866.136719 20.988281 L 855.457031 42.347656 L 866.136719 34.339844 L 876.816406 42.347656 "/>
<path style=" stroke:none;fill-rule:nonzero;fill:rgb(0%,0%,0%);fill-opacity:1;" d="M 866.136719 106.03125 L 876.816406 84.667969 L 866.136719 92.679688 L 855.457031 84.667969 "/>
<path style="fill:none;stroke-width:7.97021;stroke-linecap:butt;stroke-linejoin:miter;stroke:rgb(0%,0%,0%);stroke-opacity:1;stroke-miterlimit:10;" d="M 705.57875 85.03875 L 825.145156 85.03875 " transform="matrix(1,0,0,-1,27.64,191.07)"/>
<path style=" stroke:none;fill-rule:nonzero;fill:rgb(0%,0%,0%);fill-opacity:1;" d="M 719.871094 106.03125 L 741.230469 116.710938 L 733.21875 106.03125 L 741.230469 95.347656 "/>
<path style=" stroke:none;fill-rule:nonzero;fill:rgb(0%,0%,0%);fill-opacity:1;" d="M 866.136719 106.03125 L 844.777344 95.347656 L 852.785156 106.03125 L 844.777344 116.710938 "/>
<path style="fill:none;stroke-width:7.97021;stroke-linecap:butt;stroke-linejoin:miter;stroke:rgb(0%,0%,0%);stroke-opacity:1;stroke-miterlimit:10;" d="M 774.11 74.866875 L 829.750625 10.171562 " transform="matrix(1,0,0,-1,27.64,191.07)"/>
<path style=" stroke:none;fill-rule:nonzero;fill:rgb(0%,0%,0%);fill-opacity:1;" d="M 793.003906 106.03125 L 798.863281 129.304688 L 801.75 116.203125 L 815.136719 115.304688 "/>
<path style=" stroke:none;fill-rule:nonzero;fill:rgb(0%,0%,0%);fill-opacity:1;" d="M 866.136719 191.070312 L 860.277344 167.796875 L 857.390625 180.898438 L 844.003906 181.792969 "/>
<path style="fill:none;stroke-width:7.97021;stroke-linecap:butt;stroke-linejoin:miter;stroke:rgb(0%,0%,0%);stroke-opacity:1;stroke-miterlimit:10;" d="M 862.309219 13.35125 L 862.309219 156.730156 " transform="matrix(1,0,0,-1,27.64,191.07)"/>
<path style=" stroke:none;fill-rule:nonzero;fill:rgb(0%,0%,0%);fill-opacity:1;" d="M 889.949219 191.070312 L 900.632812 169.710938 L 889.949219 177.71875 L 879.269531 169.710938 "/>
<path style=" stroke:none;fill-rule:nonzero;fill:rgb(0%,0%,0%);fill-opacity:1;" d="M 889.949219 20.988281 L 879.269531 42.347656 L 889.949219 34.339844 L 900.632812 42.347656 "/>
<path style="fill:none;stroke-width:7.97021;stroke-linecap:butt;stroke-linejoin:miter;stroke:rgb(0%,0%,0%);stroke-opacity:1;stroke-miterlimit:10;" d="M 875.660781 -0.0003125 L 995.227188 -0.0003125 " transform="matrix(1,0,0,-1,27.64,191.07)"/>
<path style=" stroke:none;fill-rule:nonzero;fill:rgb(0%,0%,0%);fill-opacity:1;" d="M 889.953125 191.070312 L 911.3125 201.75 L 903.300781 191.070312 L 911.3125 180.390625 "/>
<path style=" stroke:none;fill-rule:nonzero;fill:rgb(0%,0%,0%);fill-opacity:1;" d="M 1036.21875 191.070312 L 1014.859375 180.390625 L 1022.867188 191.070312 L 1014.859375 201.75 "/>
<path style="fill:none;stroke-width:7.97021;stroke-linecap:butt;stroke-linejoin:miter;stroke:rgb(0%,0%,0%);stroke-opacity:1;stroke-miterlimit:10;" d="M 875.660781 85.03875 L 995.227188 85.03875 " transform="matrix(1,0,0,-1,27.64,191.07)"/>
<path style=" stroke:none;fill-rule:nonzero;fill:rgb(0%,0%,0%);fill-opacity:1;" d="M 889.953125 106.03125 L 911.3125 116.710938 L 903.300781 106.03125 L 911.3125 95.347656 "/>
<path style=" stroke:none;fill-rule:nonzero;fill:rgb(0%,0%,0%);fill-opacity:1;" d="M 1036.21875 106.03125 L 1014.859375 95.347656 L 1022.867188 106.03125 L 1014.859375 116.710938 "/>
<path style="fill:none;stroke-width:7.97021;stroke-linecap:butt;stroke-linejoin:miter;stroke:rgb(0%,0%,0%);stroke-opacity:1;stroke-miterlimit:10;" d="M 875.660781 170.081719 L 995.227188 170.081719 " transform="matrix(1,0,0,-1,27.64,191.07)"/>
<path style=" stroke:none;fill-rule:nonzero;fill:rgb(0%,0%,0%);fill-opacity:1;" d="M 889.953125 20.988281 L 911.3125 31.667969 L 903.300781 20.988281 L 911.3125 10.308594 "/>
<path style=" stroke:none;fill-rule:nonzero;fill:rgb(0%,0%,0%);fill-opacity:1;" d="M 1036.21875 20.988281 L 1014.859375 10.308594 L 1022.867188 20.988281 L 1014.859375 31.667969 "/>
</g>
</svg>
